<svg xmlns="http://www.w3.org/2000/svg" viewBox="0 0 448 512"><path d="m195.79 36.703c-8.448 0.0076-15.945 5.4144-18.619 13.428-12.698-12.94-34.725-5.4192-36.859 12.584-3.1788-1.5928-6.6743-2.4527-10.229-2.5165-13.153-0.40594-24.113 10.068-24.52 23.302-0.0489 2.7882 0.39119 5.5633 1.3002 8.1999-15.653-1.428-29.592 9.8812-31.42 25.493-0.37313 3.2829-0.18059 6.6055 0.56926 9.823-3.7347 0.6495-7.227 2.8409-9.4188 6.2508-1.1714 1.836-1.8944 3.9219-2.1106 6.0891-12.252-5.2109-25.482 5.005-23.54 18.177 0.02541 3e-3 0.05075 7e-3 0.07607 9e-3l0.08245 0.89273c-0.06097-0.29928-0.1138-0.60013-0.15857-0.90226-17.742-2.2194-28.985 18.489-17.46 32.159-17.702 4.218-22.571 27.098-8.1187 38.158-3.0383 1.8657-5.6184 4.3905-7.5495 7.3879-7.0952 11.145-3.826 25.93 7.3068 33.044 2.3401 1.491 4.9221 2.5626 7.6306 3.1666-9.3113 12.694-6.7883 30.499 5.6831 40.106 3.1957 2.4696 6.8748 4.2399 10.799 5.1963l-0.4059-0.0809c-2.2997 4.0902-2.3915 9.0618-0.2442 13.234 1.0058 1.9326 2.4524 3.6013 4.2227 4.8712-10.651 7.9524-8.5095 24.492 3.8152 29.47-10.959 14.22 1.322 34.478 18.998 31.338-5.2235 17.308 11.862 32.989 28.66 26.305 0.114 3.5675 1.0294 7.0634 2.6783 10.229 6.0307 11.721 20.399 16.366 32.15 10.392 2.4978-1.2736 4.7517-2.9773 6.6583-5.033 6.2535 14.37 22.797 21.167 37.346 15.343 5.6594-2.2444 10.463-6.2234 13.721-11.366l-0.0825 0.16333c0.6495 6.9012 6.4151 12.422 13.478 12.584 2.1899 0.0456 4.3596-0.4277 6.3316-1.3811 1.9165 13.126 17.429 19.132 27.684 10.717 3.259 7.4352 10.755 12.1 18.865 11.74 8.1099-0.35963 15.164-5.67 17.752-13.364 12.725 12.95 34.78 5.3717 36.858-12.665 3.1737 1.6184 6.6695 2.5059 10.231 2.5973 13.197 0.31767 24.164-10.104 24.518-23.3 0.0837-2.7807-0.31929-5.5546-1.1909-8.1965-0.28001-0.0245-0.55965-0.053-0.83885-0.0856h0.81188c9e-3 0.0285 0.0181 0.0571 0.027 0.0856 15.614 1.3652 29.485-9.9292 31.311-25.496 0.4097-3.3054 0.245-6.6566-0.48681-9.9055 3.6535-0.56831 7.1445-2.7597 9.3363-6.2508 1.1714-1.836 1.8944-3.9219 2.1106-6.0891 12.594 5.3401 26.031-5.5784 23.383-18.998 0.0615 0.29614 0.11546 0.59382 0.16174 0.89272 17.816 2.2866 29.105-18.559 17.455-32.231 5.196-1.299 10.068-4.5462 13.153-9.4174 5.9936-9.3998 3.8474-21.817-4.9537-28.66 3.0183-1.8982 5.5714-4.4507 7.4704-7.4684 7.0404-11.128 3.7764-25.853-7.3068-32.963-2.335-1.5196-4.918-2.6187-7.632-3.2475 9.2761-12.658 6.7923-30.399-5.6022-40.024-3.1063-2.4007-6.6704-4.1414-10.473-5.1154 2.3288-4.1112 2.4207-9.1213 0.2442-13.315-0.98231-1.9237-2.4-3.5917-4.1402-4.8712 10.651-7.9524 8.5081-24.493-3.8167-29.47 10.816-14.211-1.4015-34.314-18.996-31.257 5.368-17.393-11.869-33.217-28.74-26.386-0.0894-3.5614-0.97757-7.0573-2.599-10.229-6.0321-11.768-20.461-16.421-32.231-10.392-2.5037 1.2985-4.7574 3.0304-6.6568 5.1154-6.1702-14.451-22.732-21.352-37.346-15.426-5.5789 2.2232-10.321 6.1382-13.561 11.195 2.8e-4 0.0024 1e-3 0.0049 1e-3 0.0081l-0.16174 0.2442c0.0529-0.08432 0.10634-0.16836 0.16016-0.25213-0.73433-6.816-6.4144-12.333-13.556-12.495-2.184-0.07104-4.3539 0.37447-6.3333 1.3003-1.9159-13.126-17.429-19.131-27.684-10.718-3.143-7.131-10.203-11.73-17.996-11.723zm14.098 33.319c2.9535 5.1868 8.4047 8.4513 14.371 8.6068 3.5155 0.09696 6.9748-0.89557 9.9042-2.8416 0.49804 1.6475 1.2964 3.1889 2.3548 4.5462-0.4383 0.17659-0.87136 0.36589-1.2987 0.56768-8.4818 4.3866-13.575 13.365-12.99 22.896-4.1553-0.34311-8.3229 0.50155-12.016 2.4356-10.827 5.6245-15.073 18.942-9.4986 29.795v0.0809c-12.843 2.7179-19.578 16.912-13.559 28.579 1.1047 2.1446 2.5904 4.0703 4.3844 5.6831 0.42084-0.20668 0.8504-0.39502 1.2876-0.56451-8.7867 3.5111-12.655 13.814-8.3499 22.241 1.6836 3.2569 4.435 5.8365 7.7936 7.3068-7.9984 8.0572-4.0095 21.767 7.0627 24.275-1.4257 2.6557-1.456 5.8424-0.0809 8.5244 0.62452 1.2097 1.5127 2.2636 2.599 3.0842-3.359 3.9169-5.6275 8.6494-6.5774 13.721-2.652-1.2288-5.733-1.1078-8.2803 0.32506-1.5426-6.2514-6.9823-10.96-13.721-11.122-2.9446-0.0558-5.8352 0.79443-8.2803 2.4356-1.6238-6.9823-7.7949-12.26-15.264-12.422-1.1418-0.04-2.2847 0.0419-3.4092 0.2442 0.15615-0.99414 0.23725-1.9986 0.24261-3.0049 0.30922-10.425-7.4859-19.318-17.861-20.378 0.92538-2.3304 1.4472-4.8013 1.5429-7.3068 0.16238-8.5244-4.3841-15.994-11.366-19.891 3.1422-4.0513 4.9063-9.0016 5.0346-14.127 0.16237-6.7386-2.3554-12.827-6.6583-17.292 8.6934-4.3766 14.61-12.824 15.751-22.49 0.65579-5.4777-0.2743-11.028-2.6798-15.993 12.436-0.40927 22.472-10.303 23.057-22.732 2.5 1.0315 5.172 1.5823 7.876 1.6237 9.9596 0.27468 18.814-6.2995 21.432-15.912 3.4786 3.1478 7.9761 4.9349 12.667 5.033 5.4184 0.13733 10.651-1.9791 14.451-5.8449zm99.373 32.881c6.3219 10.724 19.823 14.788 31.015 9.3363 0.25775 2.7188 1.0288 5.3639 2.2723 7.7956 4.5556 8.8651 14.587 13.461 24.275 11.122-1.1118 4.5671-0.53509 9.3823 1.6238 13.558 2.598 5.0336 6.983 8.4446 12.016 9.9055-3.1263 5.0775-3.3729 11.419-0.65013 16.724 1.5998 3.1208 4.1232 5.6724 7.2256 7.3068-0.67733 0.71946-1.2764 1.5088-1.7871 2.3548-1.3573-1.4257-2.884-2.6797-4.5462-3.7343-8.281-5.3584-18.673-4.8725-26.386 0.32348-1.7833-3.7647-4.5986-6.9458-8.1187-9.1734-10.334-6.5739-24.042-3.5195-30.607 6.82-1.1501-1.2735-2.4602-2.3928-3.8977-3.33-9.2937-5.9988-21.696-3.2629-27.604 6.0891-1.318 2.0328-2.2536 4.2893-2.7607 6.6583-7.469-4.79-17.373-2.598-22.083 4.8712-1.9777 3.0827-2.8375 6.7507-2.4356 10.391-11.001-2.7744-20.762 7.6286-17.293 18.431-3.0056 0.11097-5.766 1.6881-7.3879 4.2211-0.59008 0.94607-1.0028 1.9917-1.2178 3.0858-4.8213-1.1206-9.8474-1.0088-14.614 0.32506-0.16238-0.73067-0.40594-1.4623-0.81187-2.193-0.763-1.472-1.914-2.7075-3.3284-3.5725 4.8712-4.303 6.3326-11.365 3.2475-17.292-1.3462-2.6344-3.4726-4.7891-6.0891-6.1699 5.3584-4.7088 7.0634-12.666 3.6535-19.323-0.52042-1.0106-1.1466-1.9631-1.8679-2.8416 0.94952-0.33603 1.8723-0.74312 2.7607-1.2178 9.3363-4.79 13.315-15.914 9.3363-25.412 2.4938-0.34461 4.9103-1.1131 7.1452-2.2723 7.2581-3.737 11.874-11.161 12.015-19.323 5.0857 0.80058 10.294-0.0532 14.858-2.4356 5.7783-2.9748 10.111-8.1559 12.016-14.37v0.24262c7.9984 5.5426 18.244 6.7016 27.279 3.0858 5.1156-2.0425 9.5391-5.5082 12.746-9.9867zm-234.31 51.392c0.71864 0.19281 1.4514 0.32855 2.1914 0.40593-0.91355 2.4995-1.407 5.133-1.4604 7.7936-0.25892 9.5912 5.1929 18.423 13.883 22.49-2.2851 3.4492-3.5514 7.4724-3.6535 11.609-0.32475 12.26 9.4174 22.408 21.596 22.652h0.0809c-3.7516 12.57 5.4781 25.265 18.592 25.574 2.4262 0.087 4.8478-0.27095 7.1452-1.0561-0.24356 8.8495 6.7379 16.238 15.587 16.401 3.6821 0.12798 7.2953-1.0192 10.229-3.2475 3.3568 10.728 17.139 13.685 24.6 5.2771 1.6563 2.5252 4.4494 4.0736 7.4684 4.1402 1.9403 0.0533 3.8468-0.51569 5.4405-1.6237v0.16173c1.6658 4.35 4.3363 8.2445 7.7935 11.366-3.2051 1.4432-5.2913 4.6043-5.3581 8.1187-6.0079-1.9485-12.909 0.2442-16.563 5.9273-1.5553 2.4732-2.3197 5.3617-2.1914 8.2803-6.82-2.192-14.452 0.3257-18.511 6.6583-0.6234 0.96973-1.1406 2.0038-1.5429 3.0842-0.76279-0.68369-1.5771-1.3076-2.4356-1.8664-8.7684-5.6831-20.458-3.4099-26.628 4.8712-1.5653-1.9866-3.4603-3.6896-5.6022-5.0346-6.9005-4.4156-15.674-4.665-22.813-0.64855-1.8613-4.7548-5.1888-8.7934-9.4999-11.529-5.6831-3.6535-12.178-4.6276-18.267-3.2475 0.73656-9.6987-3.4404-19.119-11.122-25.086-4.3303-3.3955-9.5425-5.4804-15.02-6.0082 6.0683-10.883 2.7444-24.602-7.632-31.501 2.1914-1.584 4.0646-3.5669 5.5214-5.8449 5.5207-8.6062 4.1396-19.567-2.599-26.63 4.4949-1.3351 8.3574-4.2464 10.88-8.1998 3.0039-4.79 3.7346-10.31 2.4356-15.426 5.9636 0.14074 11.567-2.8456 14.775-7.8747 1.9055-2.9712 2.8419-6.4606 2.6798-9.9866zm241.86 46.358c1.5584 2.0155 3.4538 3.7462 5.6022 5.1154 6.9154 4.3903 15.688 4.6085 22.813 0.56769 1.8674 4.796 5.2252 8.8658 9.579 11.611 5.6019 3.6534 12.178 4.5468 18.187 3.1666-0.76469 9.727 3.4159 19.186 11.124 25.168h0.0809c4.3624 3.3802 9.6033 5.437 15.1 5.9258-6.1193 10.901-2.7902 24.678 7.632 31.582-2.2204 1.5762-4.1216 3.5596-5.6022 5.8449-5.378 8.427-4.2694 19.443 2.6798 26.63-4.5122 1.2974-8.404 4.1804-10.96 8.1187-2.9176 4.5809-3.7998 10.169-2.4356 15.426-5.9642-0.14129-11.569 2.8451-14.777 7.8747-1.905 2.9714-2.8408 6.4608-2.6782 9.9867l-2.193-0.40594-0.0809 0.16175c0.97811-2.5155 1.527-5.1774 1.6237-7.8747 0.22941-9.6284-5.293-18.47-14.046-22.488 2.2854-3.4496 3.5516-7.4738 3.6534-11.611 0.32475-12.26-9.3363-22.408-21.596-22.732 0.49151-1.6627 0.76441-3.3823 0.81187-5.1154 0.31767-11.049-8.4338-20.238-19.485-20.459-2.4036-0.051-4.7965 0.33426-7.0627 1.1369l-9e-3 0.0967c-0.0294 0.48412-0.0808 0.96669-0.15381 1.4461l0.15381-1.4461c3e-3 -0.0592 7e-3 -0.11839 9e-3 -0.1776 0.16238-8.8495-6.7392-16.238-15.67-16.401-3.6643-0.0862-7.2466 1.0888-10.148 3.3283-3.3253-10.813-17.224-13.785-24.681-5.2772-1.6378-2.5561-4.434-4.1364-7.4684-4.2211-1.4039-0.0198-2.7933 0.28575-4.0594 0.89272-1.2535-4.5757-3.5931-8.7812-6.82-12.259 0.56831-0.48712 1.1366-1.1373 1.6237-1.8679 0.869-1.3897 1.3462-2.9884 1.3811-4.627 6.0891 1.9485 12.989-0.32506 16.561-6.0082 1.6002-2.4868 2.3943-5.4067 2.2739-8.3614 6.9485 2.2715 14.554-0.431 18.511-6.5775 0.59486-0.97331 1.0844-2.0072 1.4604-3.0842 0.76604 0.65529 1.5802 1.2521 2.4356 1.7854 8.8495 5.6831 20.46 3.4099 26.63-4.8712zm-64.301 62.108v0.16332c1.2104 0.61108 2.5421 0.94371 3.8976 0.97365 1.6438 0.0539 3.2714-0.33903 4.7095-1.1369 1.4614 6.2514 6.9809 10.88 13.639 11.124 2.9725 0.0729 5.8944-0.77807 8.3628-2.4356 1.6554 7.1053 7.8889 12.205 15.181 12.42 1.1452 0.0135 2.2887-0.0955 3.4108-0.32507-0.16079 1.0208-0.24243 2.0524-0.2442 3.0858-0.26611 10.394 7.5177 19.239 17.861 20.297-3.905 10.248 0.27127 21.811 9.823 27.198-3.1579 4.0736-4.9224 9.0544-5.0329 14.208-0.16238 6.7386 2.4347 12.828 6.7376 17.293l-0.0809-0.0825c-8.3621 4.3029-14.533 12.504-15.751 22.49-0.6558 5.4777 0.27429 11.028 2.6798 15.993-12.503 0.40593-22.733 10.555-23.057 23.302v-0.48839c-2.4941-1.059-5.1658-1.6373-7.8747-1.7046-9.9535-0.22798-18.773 6.3785-21.353 15.995-3.487-3.1956-8.0173-5.0138-12.746-5.1154-5.419-0.13777-10.653 1.9787-14.452 5.8449-2.9738-5.1546-8.4202-8.3858-14.37-8.5244-3.5248-0.073-6.9857 0.94857-9.9055 2.924v-0.0825c0.0274 1e-3 0.055 1e-3 0.0824 0-0.52256-1.6535-1.3485-3.1952-2.4356-4.5462 9.2491-4.0632 14.985-13.461 14.37-23.544 4.1202 0.35216 8.256-0.46394 11.934-2.3548 10.905-5.5962 15.198-18.982 9.581-29.876v-0.0809c1.6945-0.38134 3.3321-0.98211 4.8712-1.7871 9.8237-4.8712 13.639-16.968 8.6055-26.792-1.0801-2.138-2.5375-4.0632-4.302-5.6831 7.8753-4.0594 11.041-13.72 6.9816-21.596-1.6836-3.2569-4.435-5.8365-7.7935-7.3068 7.899-8.0842 3.8785-21.699-7.1452-24.195 1.4797-2.6636 1.5402-5.8882 0.16174-8.6055-0.92085-1.7816-2.4049-3.2088-4.2211-4.0594 3.7119-3.5699 6.4264-8.0477 7.8747-12.99zm-20.945 20.216c-0.17253 1.7984 0.19457 3.6074 1.0545 5.1963 0.74082 1.4618 1.8629 2.6961 3.2475 3.5725-4.79 4.303-6.2514 11.365-3.2475 17.373 1.346 2.635 3.4724 4.7902 6.0891 6.1715-5.2772 4.7088-7.0634 12.583-3.6534 19.24 0.54033 1.0427 1.1939 2.0228 1.9488 2.9224-0.97487 0.30574-1.9249 0.68586-2.8416 1.1369-9.2552 4.79-13.315 15.914-9.2558 25.412-2.5207 0.33736-4.9645 1.106-7.2243 2.2723-7.5502 3.897-11.935 11.529-12.016 19.404-5.077-0.82539-10.285-2e-5 -14.858 2.3548-5.7031 2.9286-9.9995 8.0146-11.934 14.127-7.7942-5.3584-17.942-6.8207-27.279-3.0858-5.1162 2.0422-9.5398 5.5079-12.748 9.9867-6.3264-10.767-19.883-14.837-31.094-9.3363-0.24121-2.6856-0.98515-5.302-2.193-7.7131-4.537-8.932-14.622-13.571-24.356-11.204 1.1118-4.5672 0.53509-9.3823-1.6237-13.558-2.5168-5.0336-6.9809-8.4446-12.015-9.9055 3.1521-5.0632 3.4293-11.406 0.73102-16.724-1.6211-3.1328-4.174-5.6857-7.3068-7.3068 0.67136-0.69492 1.2696-1.4568 1.7855-2.2739 1.3577 1.4257 2.8844 2.6802 4.5462 3.7359 8.3621 5.3584 18.673 4.8709 26.386-0.32506 1.7959 3.7349 4.6102 6.887 8.1187 9.0922 10.313 6.5903 24.016 3.574 30.608-6.7376v-0.0824c1.1753 1.2782 2.5122 2.3976 3.9769 3.33 9.2775 5.9432 21.618 3.2129 27.523-6.0891 1.318-2.0328 2.2536-4.2893 2.7607-6.6583 7.469 4.7589 17.38 2.5808 22.165-4.8712 1.9777-3.0827 2.8375-6.7507 2.4356-10.391 10.92 2.6574 20.561-7.6212 17.211-18.349 3.0346-0.0847 5.8308-1.6651 7.4684-4.2211 1.2145-1.9026 1.678-4.1888 1.3002-6.4141 2.192 0.56831 4.5462 0.81187 6.9816 0.81187 2.4633 8e-3 4.918-0.2918 7.3068-0.89273z" stroke-width=".81187"/></svg>
